# xmcd
#
# Track frame offsets:
# 150
# 60738
# 74349
# 114374
# 124790
# 140943
#
# Disc length: 3000 seconds
#
#
# Revision: 0
# Processed by: cddbd v1.5.1PL2 Copyright (c) Steve Scherf et al.
# Submitted via: FreeRIP 2.942 
#
DISCID=5b0bb606
DTITLE=Yonder Mountain String Band - Mountain Tracks: Volume 4
DYEAR=2006
DGENRE=Bluegrass
TTITLE0=Girlfriend Is Better
TTITLE1=Another Day
TTITLE2=Looking Back Over My Shoulder
TTITLE3=Corona
TTITLE4=River
TTITLE5=Ruby > Robots > Ruby
EXTD=
EXTT0=
EXTT1=
EXTT2=
EXTT3=
EXTT4=
EXTT5=
PLAYORDER=
